<?xml version="1.0"?>
<svg xmlns="http://www.w3.org/2000/svg" xmlns:xlink="http://www.w3.org/1999/xlink" version="1.1" id="Capa_1" x="0px" y="0px" viewBox="0 0 512 512" style="enable-background:new 0 0 512 512;" xml:space="preserve" width="512px" height="512px" class=""><g><path style="fill:#2AE8D8" d="M337.589,305.372v66.696H174.581v-66.696c0-23.541,19.08-42.61,42.61-42.61h77.777  C318.509,262.761,337.589,281.83,337.589,305.372z" data-original="#7FC8F1" class="" data-old_color="#7FC8F1"/><path style="fill:#70797A" d="M303.845,214.99c0,26.144-21.004,47.383-47.049,47.76c-0.234,0.011-0.478,0.011-0.712,0.011  c-26.378,0-47.772-21.394-47.772-47.771c0-26.378,21.394-47.761,47.772-47.761c0.234,0,0.478,0,0.712,0.011  C282.841,167.618,303.845,188.846,303.845,214.99z" data-original="#FFC473" class="active-path" data-old_color="#FFC473"/><path style="fill:#474C4D" d="M256.797,262.75v-95.511c26.044,0.378,47.049,21.605,47.049,47.749  C303.845,241.134,282.841,262.372,256.797,262.75z" data-original="#FFAA20" class="" data-old_color="#FFAA20"/><path style="fill:#22BCAF" d="M337.589,305.372v66.696h-80.792V262.761h38.171C318.509,262.761,337.589,281.83,337.589,305.372z" data-original="#00ACEA" class="" data-old_color="#00ACEA"/><path style="fill:#E2E2E2" d="M453.584,237.313c-1.509-18.762-5.638-37.015-12.335-54.508l46.141-36.955l-74.979-93.622  L366.55,88.954c-15.833-10.666-32.956-18.902-51.119-24.58V6.098H195.48v58.656c-18.992,6.078-36.815,14.964-53.228,26.529  L95.911,55.267l-73.61,94.711l47.161,36.645c-6.297,17.533-10.046,35.765-11.195,54.458L0,255.025l27.909,116.652l59.396-14.204  c9.586,15.554,21.211,29.628,34.716,42.013l-26.059,55.277l108.506,51.139l26.309-55.817c8.696,1.12,17.383,1.659,26.019,1.639  c9.426-0.03,18.812-0.74,28.108-2.089l26.949,55.077l107.746-52.718l-26.879-54.937c13.315-12.665,24.73-27.009,34.056-42.832  l59.026,13.215L512,250.387L453.584,237.313z M256.795,366.22c-0.24,0.01-0.47,0.01-0.71,0.01  c-62.145,0-112.714-50.569-112.714-112.714s50.569-112.714,112.714-112.714c0.24,0,0.47,0,0.71,0.01  c61.815,0.38,112.004,50.799,112.004,112.704S318.609,365.84,256.795,366.22z" data-original="#C8C6CD" class="" data-old_color="#C8C6CD"/><path style="fill:#CDCDCD" d="M512,250.387l-26.199,117.052l-59.026-13.215c-9.326,15.823-20.742,30.168-34.056,42.832  l26.879,54.937l-107.746,52.718l-26.949-55.077c-9.296,1.349-18.682,2.059-28.108,2.089V366.22  c61.815-0.38,112.004-50.799,112.004-112.704s-50.189-112.324-112.004-112.704V6.098h58.636v58.276  c18.163,5.678,35.286,13.914,51.119,24.58l45.861-36.725l74.979,93.622l-46.141,36.955c6.697,17.493,10.826,35.745,12.335,54.508  L512,250.387z" data-original="#AEADB3" class="" data-old_color="#AEADB3"/></g> </svg>
